<svg width="256" height="256" xmlns="http://www.w3.org/2000/svg">
 <style type="text/css">.st0{fill:#FFFFFF;}
	.st1{fill:#FFFFFF;stroke:#FFFFFF;stroke-width:9;stroke-linecap:round;stroke-miterlimit:10;}</style>

 <g>
  <title>background</title>
  <rect fill="none" id="canvas_background" height="258" width="258" y="-1" x="-1"/>
 </g>
 <g>
  <title>Layer 1</title>
  <g id="svg_1">
   <polygon id="svg_2" points="-246.5,455.1 -247.5,457.1 -245.5,457.1 -246.5,455.1  " class="st0"/>
   <path id="svg_3" d="m-246.5,447c-4.7,0 -8.5,3.8 -8.5,8.5c0,5.8 7.7,15.6 8,16c0.1,0.2 0.3,0.3 0.5,0.3l0,0c0.2,0 0.4,-0.1 0.5,-0.3c0.3,-0.4 7.9,-10.3 7.9,-16c0.1,-4.7 -3.7,-8.5 -8.4,-8.5zm4,13.1l-1.4,0c-0.2,0 -0.3,-0.1 -0.4,-0.3l-0.5,-1l-3.4,0l-0.5,1c-0.1,0.2 -0.2,0.3 -0.5,0.3l-1.4,0c-0.2,0 -0.3,-0.2 -0.2,-0.3l3.9,-8.5c0,-0.1 0.1,-0.1 0.2,-0.1l0.1,0c0.1,0 0.2,0.1 0.2,0.1l3.9,8.5c0.3,0.2 0.2,0.3 0,0.3z" class="st0"/>
  </g>
  <g id="svg_4">
   <path id="svg_5" d="m-197.7,466.4c-8,0 -14.6,6.6 -14.6,14.6c0,9.9 13.2,26.8 13.7,27.5c0.2,0.3 0.6,0.4 0.9,0.4c0,0 0,0 0,0c0.4,0 0.7,-0.2 0.9,-0.4c0.6,-0.7 13.6,-17.6 13.6,-27.5c0.1,-8 -6.4,-14.6 -14.5,-14.6zm0.5,22.3l-5.3,0c-0.2,0 -0.4,-0.2 -0.4,-0.4l0,-14.3c0,-0.2 0.2,-0.4 0.4,-0.4l5,0c2.5,0 4.6,1.7 4.6,4c0,1.7 -1.5,2.9 -2.5,3.4c1.1,0.5 2.9,1.5 2.9,3.5c0,2.4 -2.1,4.2 -4.7,4.2z" class="st0"/>
   <path id="svg_6" d="m-197.8,482.5l-1.7,0l0,3.1l2,0c0.8,0 1.5,-0.7 1.5,-1.6c0,-0.8 -1,-1.5 -1.8,-1.5z" class="st0"/>
   <path id="svg_7" d="m-196.4,478.2c0,-0.9 -0.7,-1.5 -1.5,-1.5l-1.7,0l0,3l1.7,0c0.9,0 1.5,-0.7 1.5,-1.5z" class="st0"/>
  </g>
  <path id="svg_8" d="m-189.8,480" class="st1"/>
  <path id="svg_9" d="m-197.3,512.5l-38.9,-21.3l9,-4.8c0.9,-0.5 1.4,-1.5 1.3,-2.5c-0.1,-1 -0.7,-1.9 -1.6,-2.4c0,0 -16.1,-7.2 -17.2,-7.7c-0.8,-0.3 -1.9,-0.3 -2.3,-0.2c-1.2,0.3 -2,1 -2,1.8c0,1.2 2.1,1.9 2.4,2.1l15.3,6.7l-11.3,4.7c-0.9,0.5 -1.4,1.5 -1.3,2.5c0,1 0.6,1.9 1.5,2.4l39.3,23.6c1.3,0.6 2.8,1.7 5.1,1.7c0.2,0 0.4,0 0.6,0c0,0 0,0 0.1,0c0.3,0 0.5,0 0.8,-0.1c1.9,-0.4 3.3,-1.5 3.3,-2.8c0,-1.6 -1.8,-2.5 -4.1,-3.7z" class="st0"/>
  <style transform="matrix(3.4844475894511224,0,0,3.4844475894511224,-1038.1163291148396,-4794.599128282972) " type="text/css">.st0{fill:#FFFFFF;}</style>
  <text xml:space="preserve" text-anchor="start" font-family="Helvetica, Arial, sans-serif" font-size="79" id="svg_16" y="151.571531" x="43.71392" stroke-opacity="null" stroke-width="0" stroke="null" fill="#ffffff">GPS</text>
 </g>
</svg>